<?xml version="1.0" encoding="utf-8"?>
<!-- Generator: Adobe Illustrator 24.1.3, SVG Export Plug-In . SVG Version: 6.00 Build 0)  -->
<svg version="1.1" id="Layer_1" xmlns="http://www.w3.org/2000/svg" xmlns:xlink="http://www.w3.org/1999/xlink" x="0px" y="0px"
	 viewBox="0 0 64 64" style="enable-background:new 0 0 64 64;" xml:space="preserve">
<g>
	<path d="M36.4,16.2c0.6,0,1-0.4,1-1v-5c0-0.6-0.4-1-1-1s-1,0.4-1,1v5C35.4,15.7,35.9,16.2,36.4,16.2z"/>
	<path d="M36.4,47.8c-0.6,0-1,0.4-1,1v5c0,0.6,0.4,1,1,1s1-0.4,1-1v-5C37.4,48.3,37,47.8,36.4,47.8z"/>
	<path d="M23.8,43.2l-3.6,3.6c-0.4,0.4-0.4,1,0,1.4c0.2,0.2,0.5,0.3,0.7,0.3s0.5-0.1,0.7-0.3l3.6-3.6c0.4-0.4,0.4-1,0-1.4
		S24.2,42.8,23.8,43.2z"/>
	<path d="M20.6,32c0-0.6-0.4-1-1-1h-5c-0.6,0-1,0.4-1,1s0.4,1,1,1h5C20.2,33,20.6,32.6,20.6,32z"/>
	<path d="M23.8,20.8c0.2,0.2,0.5,0.3,0.7,0.3s0.5-0.1,0.7-0.3c0.4-0.4,0.4-1,0-1.4l-3.6-3.6c-0.4-0.4-1-0.4-1.4,0s-0.4,1,0,1.4
		L23.8,20.8z"/>
	<path d="M36.4,18c-7.7,0-14,6.3-14,14s6.3,14,14,14s14-6.3,14-14S44.1,18,36.4,18z M24.4,32c0-6.3,4.9-11.4,11-11.9v23.9
		C29.3,43.4,24.4,38.3,24.4,32z M37.4,43.9V20.1c6.1,0.5,11,5.7,11,11.9S43.6,43.4,37.4,43.9z"/>
</g>
</svg>
